<svg xmlns="http://www.w3.org/2000/svg" viewBox="0 0 329 98" width="329" height="98" role="img" aria-label="Ёрманд — Лабханди орзуҳои Шумо">
  <defs>
    <style>
      @import url('https://fonts.googleapis.com/css2?family=Poppins:wght@600&amp;display=swap');
      .slg { font-family:'Poppins','Segoe UI','Helvetica Neue',Arial,sans-serif; font-weight:600; fill:#034577; }
    </style>
  </defs>
  <g transform="translate(40,6)">
    <path fill="#034577" fill-rule="evenodd" d="M139.00 67.14C131.73 64.60 127.80 58.70 127.78 50.25C127.75 40.92 132.84 34.61 141.71 32.97C146.12 32.15 150.66 33.07 154.34 35.52C156.54 36.99 157.00 36.80 157.00 34.44C157.00 33.55 157.30 33.47 160.12 33.60L163.25 33.75L163.25 50.50L163.25 67.25L160.12 67.40L157.00 67.55L157.00 65.77C157.00 63.76 156.45 63.57 154.66 64.98C151.08 67.80 143.78 68.80 139.00 67.14ZM151.05 60.11C153.21 58.98 153.98 58.21 155.11 56.05C158.66 49.24 155.43 41.16 148.47 39.49C140.06 37.47 133.45 43.78 134.90 52.44C136.18 60.10 143.98 63.80 151.05 60.11ZM37.00 45.75L37.00 24.00L40.25 24.00L43.50 24.00L43.50 25.75C43.50 27.84 43.78 27.89 46.03 26.23C50.37 23.02 58.96 22.56 63.94 25.26C75.89 31.77 75.82 50.70 63.82 56.83C57.89 59.86 52.85 59.41 44.38 55.11C44.17 55.00 44.00 57.75 44.00 61.21L44.00 67.50L40.50 67.50L37.00 67.50L37.00 45.75ZM57.42 51.97C62.60 50.86 66.34 45.77 65.87 40.48C65.26 33.83 61.14 30.00 54.59 30.00C49.17 30.00 44.98 33.35 44.00 38.47C42.82 44.73 45.90 50.32 51.35 51.79C54.39 52.60 54.46 52.61 57.42 51.97ZM211.33 66.67C211.15 66.48 211.00 63.13 211.00 59.22C211.00 53.09 211.11 52.06 211.82 51.79C212.27 51.62 213.04 51.60 213.53 51.76C214.90 52.20 216.31 50.28 216.95 47.10C217.45 44.62 218.48 30.26 218.50 25.62L218.50 24.00L231.00 24.00C237.88 24.00 243.50 24.17 243.51 24.38C243.51 24.58 243.57 30.71 243.63 38.00L243.75 51.25L246.38 51.40L249.00 51.55L249.00 59.28L249.00 67.00L246.02 67.00L243.04 67.00L242.89 62.71L242.75 58.43L230.25 58.45L217.75 58.47L217.61 62.74L217.46 67.00L214.56 67.00C212.97 67.00 211.52 66.85 211.33 66.67ZM236.50 41.00L236.50 30.50L230.82 30.50L225.14 30.50L224.80 37.67C224.60 41.61 224.13 46.17 223.74 47.79C223.35 49.42 223.03 50.92 223.02 51.12C223.01 51.33 226.04 51.50 229.75 51.50L236.50 51.50L236.50 41.00ZM0.00 35.50L0.00 13.00L13.75 13.00L27.50 13.00L27.50 16.50L27.50 20.00L17.50 20.00L7.50 20.00L7.50 26.00L7.50 32.00L16.75 32.00L26.00 32.00L26.00 35.25L26.00 38.50L16.75 38.50L7.50 38.50L7.50 44.75L7.50 51.00L17.75 51.00L28.00 51.00L28.00 54.50L28.00 58.00L14.00 58.00L0.00 58.00L0.00 35.50ZM82.00 41.00L82.00 24.00L84.74 24.00C87.18 24.00 87.57 24.15 88.36 25.38C88.84 26.13 89.49 27.01 89.79 27.33C90.10 27.65 91.94 30.13 93.89 32.83C95.84 35.54 98.07 38.47 98.85 39.35L100.25 40.96L106.50 32.50L112.75 24.04L115.62 24.02L118.50 24.00L118.50 41.00L118.50 58.00L115.00 58.00L111.50 58.00L111.50 47.50C111.50 41.72 111.33 37.01 111.12 37.02C110.92 37.03 108.72 39.78 106.25 43.14C102.31 48.48 101.54 49.27 100.16 49.40C98.67 49.55 98.32 49.21 93.98 43.40C91.45 40.02 89.18 37.18 88.94 37.08C88.70 36.99 88.50 41.64 88.50 47.46L88.50 58.00L85.25 58.00L82.00 58.00L82.00 41.00ZM172.50 41.00L172.50 24.00L175.74 24.00L178.97 24.00L179.11 30.63L179.25 37.25L187.20 37.25L195.16 37.25L195.26 31.25C195.32 27.95 195.40 24.97 195.43 24.62C195.48 24.20 196.52 24.00 198.75 24.00L202.00 24.00L202.00 41.00L202.00 58.00L198.75 58.00L195.50 58.00L195.50 51.00L195.50 44.00L187.50 44.00L179.50 44.00L179.50 49.44C179.50 52.43 179.36 55.58 179.19 56.44C178.88 57.99 178.86 58.00 175.69 58.00L172.50 58.00L172.50 41.00ZM4.24 7.67C2.16 5.59 2.22 2.69 4.37 0.99C8.14 -1.97 12.83 2.40 10.51 6.72C9.51 8.61 5.75 9.18 4.24 7.67ZM19.22 8.12C18.18 7.40 17.00 5.26 17.00 4.10C17.00 3.45 17.66 2.27 18.46 1.46C20.91 -0.99 24.15 -0.26 25.51 3.04C26.08 4.40 26.05 4.83 25.28 6.26C24.79 7.17 23.91 8.04 23.32 8.20C21.84 8.60 19.85 8.56 19.22 8.12Z"/>
    <g transform="translate(2,0)">
      <path fill="#08D8E5" fill-rule="evenodd" d="M141.18 87.95C134.94 87.36 128.71 84.66 123.37 80.26C118.67 76.38 118.59 76.11 121.25 73.50C123.45 71.34 123.45 71.34 125.60 73.44C130.94 78.67 136.33 81.01 143.83 81.38C152.37 81.80 158.28 79.68 164.49 73.97C165.96 72.61 167.42 71.50 167.73 71.50C168.04 71.50 169.18 72.40 170.25 73.50C172.20 75.50 172.20 75.50 170.23 77.62C169.14 78.78 168.09 79.81 167.90 79.90C167.71 79.99 166.70 80.75 165.65 81.58C159.51 86.49 150.46 88.84 141.18 87.95Z"/>
      <text x="113" y="86" text-anchor="end"   class="slg" font-size="13" letter-spacing="0.1">Лабханди орзуҳои</text>
      <text x="178" y="86" text-anchor="start" class="slg" font-size="13" letter-spacing="0.1">Шумо</text>
    </g>
  </g>
</svg>