<svg xmlns="http://www.w3.org/2000/svg" viewBox="0 0 64 64" width="100%" height="100%">
  <!-- Tooth outline (Ceramic) -->
  <path d="M32,14 C25,11 17,15 17,25 C17,35 22,42 22,48 C22,51 25,51 26,48 C27,44 29,38 32,38 C35,38 37,44 38,48 C39,51 42,51 42,48 C42,42 47,35 47,25 C47,15 39,11 32,14 Z" 
        fill="none" stroke="#00A2D3" stroke-width="3" stroke-linecap="round" stroke-linejoin="round"/>
  <!-- Aesthetic Veneer veneer gloss line / shining curves -->
  <path d="M22,20 C22,20 28,16 32,17 C36,16 42,20 42,20" 
        fill="none" stroke="#176AA6" stroke-width="2" stroke-linecap="round"/>
  <path d="M20,27 C20,27 28,24 32,25 C36,24 44,27 44,27" 
        fill="none" stroke="#176AA6" stroke-width="2" stroke-linecap="round"/>
  <!-- Sparkle top right -->
  <path d="M48,12 Q48,15 51,15 Q48,15 48,18 Q48,15 45,15 Q48,15 48,12 Z" 
        fill="#176AA6" stroke="#176AA6" stroke-width="0.5"/>
</svg>
