<svg xmlns="http://www.w3.org/2000/svg" viewBox="0 0 64 64" width="100%" height="100%">
  <!-- Lower tooth roots (Metal base) -->
  <path d="M22,30 C22,38 22,42 22,48 C22,51 25,51 26,48 C27,44 29,38 32,38 C35,38 37,44 38,48 C39,51 42,51 42,48 C42,42 42,38 42,30" 
        fill="none" stroke="#176AA6" stroke-width="2.5" stroke-linecap="round" stroke-linejoin="round"/>
  <!-- Outer ceramic crown layer (Outline of top half) -->
  <path d="M17,26 C17,15 25,11 32,14 C39,11 47,15 47,26 C47,29 44,30 40,30 H24 C20,30 17,29 17,26 Z" 
        fill="none" stroke="#00A2D3" stroke-width="2.5" stroke-linecap="round" stroke-linejoin="round"/>
  <!-- Inner metal core outline -->
  <path d="M24,30 C24,24 28,21 32,22 C36,21 40,24 40,30" 
        fill="none" stroke="#176AA6" stroke-width="2" stroke-linecap="round" stroke-linejoin="round"/>
  <!-- Connection/Overlay lines -->
  <line x1="17" y1="26" x2="47" y2="26" stroke="#00A2D3" stroke-width="1" stroke-dasharray="3 3"/>
</svg>
