<svg xmlns="http://www.w3.org/2000/svg" viewBox="0 0 1440 320" preserveAspectRatio="none">
  <defs>
    <linearGradient id="fog" x1="0%" y1="100%" x2="0%" y2="0%">
      <stop offset="0%" style="stop-color:#FDFCFB;stop-opacity:1" />
      <stop offset="100%" style="stop-color:#FDFCFB;stop-opacity:0" />
    </linearGradient>
  </defs>
  
  <!-- Back Layer: Massive, atmospheric silhouette -->
  <path fill="#F0EFE9" d="M0,320 L0,150 
    C40,140 80,110 120,130 
    C160,150 200,100 240,120 
    C280,140 320,90 360,110 
    C400,130 440,80 480,100 
    C520,120 560,90 600,110 
    C640,130 680,100 720,120 
    C760,140 800,90 840,110 
    C880,130 920,80 960,100 
    C1000,120 1040,70 1080,90 
    C1120,110 1160,80 1200,100 
    C1240,120 1280,90 1320,110 
    C1360,130 1400,100 1440,120 
    L1440,320 Z" />

  <!-- Mid Layer: Rugged, fractured rock faces -->
  <path fill="#E6E4DD" d="M0,320 L0,220 
    L30,210 L50,230 L80,200 L110,220 L140,190 L170,215 
    L200,180 L230,210 L260,185 L290,215 L320,190 
    L350,220 L380,195 L410,225 L440,180 L470,210 
    L500,170 L530,200 L560,180 L590,210 L620,190 
    L650,220 L680,185 L710,215 L740,175 L770,205 
    L800,180 L830,210 L860,190 L890,220 L920,185 
    L950,215 L980,170 L1010,200 L1040,180 L1070,210 
    L1100,165 L1130,195 L1160,175 L1190,205 L1220,180 
    L1250,210 L1280,190 L1310,220 L1340,185 L1370,215 
    L1400,170 L1430,200 L1440,190 L1440,320 Z" />
    
  <!-- Front Layer: Sharp, detailed crags with deep crevices -->
  <path fill="#DDD9CE" d="M0,320 L0,280 
    L20,270 L40,290 L60,260 L80,280 L100,250 
    L120,280 L140,260 L160,290 L180,250 L200,280 
    L220,240 L240,270 L260,250 L280,290 L300,260 
    L320,280 L340,240 L360,270 L380,250 L400,280 
    L420,230 L440,260 L460,240 L480,270 L500,220 
    L520,250 L540,230 L560,260 L580,210 L600,240 
    L620,220 L640,250 L660,200 L680,230 L700,210 
    L720,240 L740,200 L760,230 L780,210 L800,240 
    L820,190 L840,220 L860,200 L880,230 L900,180 
    L920,210 L940,190 L960,220 L980,170 L1000,200 
    L1020,180 L1040,210 L1060,160 L1080,190 L1100,170 
    L1120,200 L1140,150 L1160,180 L1180,160 L1200,190 
    L1220,140 L1240,170 L1260,150 L1280,180 L1300,130 
    L1320,160 L1340,140 L1360,170 L1380,120 L1400,150 
    L1420,130 L1440,160 L1440,320 Z" />
    
  <!-- Fog Overlay to blend with page background -->
  <rect x="0" y="0" width="1440" height="320" fill="url(#fog)" opacity="0.4" />
</svg>