<svg xmlns="http://www.w3.org/2000/svg" viewBox="0 0 64 64" width="100%" height="100%">
  <!-- Tooth outline -->
  <path d="M32,14 C25,11 17,15 17,25 C17,35 22,42 22,48 C22,51 25,51 26,48 C27,44 29,38 32,38 C35,38 37,44 38,48 C39,51 42,51 42,48 C42,42 47,35 47,25 C47,15 39,11 32,14 Z" 
        fill="none" stroke="#176AA6" stroke-width="2.5" stroke-linecap="round" stroke-linejoin="round"/>
  <!-- Cleaning spark / shine (top right) -->
  <path d="M50,11 Q50,16 55,16 Q50,16 50,21 Q50,16 45,16 Q50,16 50,11 Z" 
        fill="#00A2D3" stroke="#00A2D3" stroke-width="1"/>
  <!-- Cleaning spark / shine (top left) -->
  <path d="M15,9 Q15,13 19,13 Q15,13 15,17 Q15,13 11,13 Q15,13 15,9 Z" 
        fill="#00A2D3" stroke="#00A2D3" stroke-width="1"/>
  <!-- Spark / shine (bottom right) -->
  <path d="M48,36 Q48,40 52,40 Q48,40 48,44 Q48,40 44,40 Q48,40 48,36 Z" 
        fill="#00A2D3" stroke="#00A2D3" stroke-width="1"/>
  <!-- Dynamic swoop / cleaning water wave -->
  <path d="M12,32 Q32,24 52,32" 
        fill="none" stroke="#00A2D3" stroke-width="2" stroke-dasharray="4 3" stroke-linecap="round"/>
</svg>
