<svg xmlns="http://www.w3.org/2000/svg" viewBox="0 0 64 64" width="100%" height="100%">
  <!-- Tooth outline -->
  <path d="M32,14 C25,11 17,15 17,25 C17,35 22,42 22,48 C22,51 25,51 26,48 C27,44 29,38 32,38 C35,38 37,44 38,48 C39,51 42,51 42,48 C42,42 47,35 47,25 C47,15 39,11 32,14 Z" 
        fill="none" stroke="#176AA6" stroke-width="2.5" stroke-linecap="round" stroke-linejoin="round"/>
  <!-- Braces Wire -->
  <path d="M12,30 Q32,34 52,30" 
        fill="none" stroke="#00A2D3" stroke-width="3" stroke-linecap="round"/>
  <!-- Bracket -->
  <rect x="26" y="24" width="12" height="12" rx="2" 
        fill="#00A2D3" stroke="#176AA6" stroke-width="1.5"/>
  <!-- Bracket details -->
  <line x1="32" y1="22" x2="32" y2="38" stroke="#ffffff" stroke-width="1.5" stroke-linecap="round"/>
  <line x1="24" y1="30" x2="40" y2="30" stroke="#ffffff" stroke-width="1.5" stroke-linecap="round"/>
</svg>
