<svg xmlns="http://www.w3.org/2000/svg" viewBox="0 0 64 64" width="100%" height="100%">
  <!-- Tooth outline -->
  <path d="M32,14 C25,11 17,15 17,25 C17,35 22,42 22,48 C22,51 25,51 26,48 C27,44 29,38 32,38 C35,38 37,44 38,48 C39,51 42,51 42,48 C42,42 47,35 47,25 C47,15 39,11 32,14 Z" 
        fill="none" stroke="#176AA6" stroke-width="2.5" stroke-linecap="round" stroke-linejoin="round"/>
  <!-- Filling/Restoration patch at top right cusp -->
  <path d="M32,14 C33,13.5 35,13 37,13.5 C40,14.5 42,16 43,18.5 L36,24 C34,22 33,19 32,14 Z" 
        fill="#00A2D3" stroke="#176AA6" stroke-width="1.5" stroke-linejoin="round"/>
  <!-- Shining medical check/cross/plus sign -->
  <path d="M26,30 H32 M29,27 V33" 
        fill="none" stroke="#00A2D3" stroke-width="2.5" stroke-linecap="round"/>
</svg>
