<svg xmlns="http://www.w3.org/2000/svg" viewBox="0 0 600 600" width="600" height="600" role="img" aria-label="KHALIF dental clinic logo">
  <defs>
    <radialGradient id="field" cx="50%" cy="42%" r="62%"><stop offset="0%" stop-color="#1C3C5E"/><stop offset="100%" stop-color="#10243F"/></radialGradient>
    <linearGradient id="plat" x1="0%" y1="0%" x2="0%" y2="100%"><stop offset="0%" stop-color="#FBFDFE"/><stop offset="50%" stop-color="#E8ECF0"/><stop offset="100%" stop-color="#A9B6C2"/></linearGradient>
    <linearGradient id="platH" x1="0%" y1="0%" x2="100%" y2="0%"><stop offset="0%" stop-color="#A9B6C2"/><stop offset="50%" stop-color="#FBFDFE"/><stop offset="100%" stop-color="#A9B6C2"/></linearGradient>
    <radialGradient id="rayfade" cx="50%" cy="50%" r="50%"><stop offset="0%" stop-color="#10243F" stop-opacity="0"/><stop offset="58%" stop-color="#10243F" stop-opacity="0"/><stop offset="100%" stop-color="#10243F" stop-opacity="0.9"/></radialGradient>
    <radialGradient id="glow" cx="50%" cy="42%" r="55%"><stop offset="0%" stop-color="#FBFDFE" stop-opacity="0.22"/><stop offset="38%" stop-color="#E8ECF0" stop-opacity="0.07"/><stop offset="100%" stop-color="#10243F" stop-opacity="0"/></radialGradient>
    <clipPath id="disk"><circle cx="300.0" cy="300.0" r="262"/></clipPath>
  </defs>

  <circle cx="300.0" cy="300.0" r="286" fill="#0A1A30"/>
  <circle cx="300.0" cy="300.0" r="283" fill="url(#plat)"/>
  <circle cx="300.0" cy="300.0" r="274" fill="#10243F"/>
  <circle cx="300.0" cy="300.0" r="269" fill="none" stroke="url(#platH)" stroke-width="2"/>
  <circle cx="300.0" cy="300.0" r="262" fill="url(#field)"/>

  <g clip-path="url(#disk)">
    <circle cx="300.0" cy="300.0" r="250" fill="#1C3C5E"/>
    <path d="M300.00 50.00A250 250 0 0 1 321.79 50.95L302.09 276.09A24 24 0 0 0 300.00 276.00ZM343.41 53.80A250 250 0 0 1 364.70 58.52L306.21 276.82A24 24 0 0 0 304.17 276.36ZM385.51 65.08A250 250 0 0 1 405.65 73.42L310.14 278.25A24 24 0 0 0 308.21 277.45ZM425.00 83.49A250 250 0 0 1 443.39 95.21L313.77 280.34A24 24 0 0 0 312.00 279.22ZM460.70 108.49A250 250 0 0 1 476.78 123.22L316.97 283.03A24 24 0 0 0 315.43 281.61ZM491.51 139.30A250 250 0 0 1 504.79 156.61L319.66 286.23A24 24 0 0 0 318.39 284.57ZM516.51 175.00A250 250 0 0 1 526.58 194.35L321.75 289.86A24 24 0 0 0 320.78 288.00ZM534.92 214.49A250 250 0 0 1 541.48 235.30L323.18 293.79A24 24 0 0 0 322.55 291.79ZM546.20 256.59A250 250 0 0 1 549.05 278.21L323.91 297.91A24 24 0 0 0 323.64 295.83ZM550.00 300.00A250 250 0 0 1 549.05 321.79L323.91 302.09A24 24 0 0 0 324.00 300.00ZM546.20 343.41A250 250 0 0 1 541.48 364.70L323.18 306.21A24 24 0 0 0 323.64 304.17ZM534.92 385.51A250 250 0 0 1 526.58 405.65L321.75 310.14A24 24 0 0 0 322.55 308.21ZM516.51 425.00A250 250 0 0 1 504.79 443.39L319.66 313.77A24 24 0 0 0 320.78 312.00ZM491.51 460.70A250 250 0 0 1 476.78 476.78L316.97 316.97A24 24 0 0 0 318.39 315.43ZM460.70 491.51A250 250 0 0 1 443.39 504.79L313.77 319.66A24 24 0 0 0 315.43 318.39ZM425.00 516.51A250 250 0 0 1 405.65 526.58L310.14 321.75A24 24 0 0 0 312.00 320.78ZM385.51 534.92A250 250 0 0 1 364.70 541.48L306.21 323.18A24 24 0 0 0 308.21 322.55ZM343.41 546.20A250 250 0 0 1 321.79 549.05L302.09 323.91A24 24 0 0 0 304.17 323.64ZM300.00 550.00A250 250 0 0 1 278.21 549.05L297.91 323.91A24 24 0 0 0 300.00 324.00ZM256.59 546.20A250 250 0 0 1 235.30 541.48L293.79 323.18A24 24 0 0 0 295.83 323.64ZM214.49 534.92A250 250 0 0 1 194.35 526.58L289.86 321.75A24 24 0 0 0 291.79 322.55ZM175.00 516.51A250 250 0 0 1 156.61 504.79L286.23 319.66A24 24 0 0 0 288.00 320.78ZM139.30 491.51A250 250 0 0 1 123.22 476.78L283.03 316.97A24 24 0 0 0 284.57 318.39ZM108.49 460.70A250 250 0 0 1 95.21 443.39L280.34 313.77A24 24 0 0 0 281.61 315.43ZM83.49 425.00A250 250 0 0 1 73.42 405.65L278.25 310.14A24 24 0 0 0 279.22 312.00ZM65.08 385.51A250 250 0 0 1 58.52 364.70L276.82 306.21A24 24 0 0 0 277.45 308.21ZM53.80 343.41A250 250 0 0 1 50.95 321.79L276.09 302.09A24 24 0 0 0 276.36 304.17ZM50.00 300.00A250 250 0 0 1 50.95 278.21L276.09 297.91A24 24 0 0 0 276.00 300.00ZM53.80 256.59A250 250 0 0 1 58.52 235.30L276.82 293.79A24 24 0 0 0 276.36 295.83ZM65.08 214.49A250 250 0 0 1 73.42 194.35L278.25 289.86A24 24 0 0 0 277.45 291.79ZM83.49 175.00A250 250 0 0 1 95.21 156.61L280.34 286.23A24 24 0 0 0 279.22 288.00ZM108.49 139.30A250 250 0 0 1 123.22 123.22L283.03 283.03A24 24 0 0 0 281.61 284.57ZM139.30 108.49A250 250 0 0 1 156.61 95.21L286.23 280.34A24 24 0 0 0 284.57 281.61ZM175.00 83.49A250 250 0 0 1 194.35 73.42L289.86 278.25A24 24 0 0 0 288.00 279.22ZM214.49 65.08A250 250 0 0 1 235.30 58.52L293.79 276.82A24 24 0 0 0 291.79 277.45ZM256.59 53.80A250 250 0 0 1 278.21 50.95L297.91 276.09A24 24 0 0 0 295.83 276.36Z" fill="#274C70" opacity="0.5"/>
    <circle cx="300.0" cy="300.0" r="250" fill="url(#rayfade)"/>
    <circle cx="300.0" cy="300.0" r="250" fill="url(#glow)"/>
    <!-- TOOTH: pure white, flat, crisp smooth lines, no gradient/bevel/shadow -->
    <g transform="translate(0.410000000000025,12.379999999999995)">
      <path d="M248.83 496.22C247.98 495.90 246.80 495.45 246.20 495.21C245.60 494.97 244.63 494.59 244.03 494.37C243.36 494.11 242.67 493.65 242.20 493.13C241.79 492.67 241.33 492.30 241.18 492.30C241.04 492.30 240.17 491.59 239.25 490.74C238.34 489.88 236.82 488.46 235.88 487.59C234.94 486.72 234.04 485.78 233.89 485.50C233.74 485.22 231.81 483.17 229.62 480.94C227.42 478.72 225.34 476.50 225.00 476.02C224.44 475.22 223.54 474.12 221.52 471.76C220.52 470.60 220.19 469.83 220.57 469.59C220.82 469.44 220.83 469.37 220.59 469.15C220.36 468.93 220.29 468.93 220.21 469.14C220.03 469.63 219.63 469.36 218.71 468.12C218.20 467.44 217.45 466.49 217.04 466.02C216.64 465.55 215.96 464.65 215.54 464.03C215.11 463.41 214.56 462.60 214.31 462.25C214.06 461.89 213.69 461.33 213.49 461.01C213.30 460.69 212.74 459.85 212.26 459.15C211.78 458.46 211.22 457.62 211.03 457.30C210.83 456.97 210.35 456.29 209.95 455.78C208.89 454.42 206.23 450.42 205.81 449.59C205.62 449.19 205.06 448.26 204.58 447.52C203.53 445.91 202.98 445.01 202.39 443.91C202.15 443.46 201.75 442.87 201.51 442.61C200.95 442.00 198.23 436.93 197.05 434.32C196.93 434.04 196.51 433.29 196.12 432.67C195.73 432.04 194.98 430.74 194.46 429.78C193.93 428.82 193.09 427.28 192.60 426.38C192.11 425.47 191.57 424.35 191.40 423.90C191.23 423.45 190.94 422.66 190.75 422.15C190.57 421.64 190.20 420.99 189.94 420.70C189.68 420.42 189.41 419.95 189.34 419.65C189.27 419.36 188.98 418.78 188.69 418.36C188.41 417.93 188.17 417.50 188.17 417.39C188.17 417.27 187.85 416.54 187.45 415.75C186.43 413.73 186.09 412.66 186.33 412.22C186.64 411.63 186.56 411.41 185.93 411.19C185.32 410.98 185.23 410.84 184.46 408.94C184.21 408.32 183.88 407.57 183.72 407.29C183.19 406.32 182.44 404.71 181.98 403.58C181.73 402.95 181.26 401.86 180.93 401.15C180.60 400.44 180.33 399.65 180.33 399.39C180.32 399.14 180.05 398.53 179.71 398.03C179.30 397.42 179.09 396.86 179.09 396.35C179.09 395.92 178.93 395.37 178.71 395.09C178.14 394.37 177.67 393.38 177.24 392.02C177.02 391.36 176.70 390.54 176.53 390.19C176.35 389.85 176.20 389.26 176.20 388.89C176.20 388.48 175.95 387.84 175.58 387.30C175.24 386.80 174.97 386.17 174.97 385.90C174.97 385.63 174.61 384.69 174.18 383.82C173.75 382.94 173.09 381.25 172.72 380.06C171.61 376.47 171.55 376.32 169.40 370.56C168.58 368.38 168.42 367.89 168.19 366.95C168.07 366.50 167.83 365.62 167.65 365.01C167.47 364.39 167.40 363.81 167.49 363.72C167.59 363.62 174.95 363.57 183.85 363.60C200.03 363.65 200.03 363.65 200.10 364.24C200.14 364.57 200.07 364.94 199.95 365.06C199.64 365.36 199.67 365.61 200.00 365.61C200.46 365.61 200.96 366.33 200.96 366.97C200.96 367.31 201.14 368.04 201.36 368.61C202.37 371.25 203.03 373.52 203.03 374.36C203.03 374.79 203.29 375.65 203.65 376.34C203.99 377.02 204.26 377.76 204.26 377.99C204.26 378.23 204.43 378.77 204.64 379.19C205.61 381.17 206.42 384.18 206.16 384.87C205.93 385.47 205.95 385.55 206.43 385.91C207.11 386.40 207.57 387.29 207.57 388.10C207.57 388.72 207.98 389.74 208.48 390.37C208.62 390.54 208.86 391.10 209.01 391.61C209.16 392.12 209.46 392.88 209.67 393.30C209.87 393.72 210.04 394.31 210.04 394.61C210.04 395.35 210.64 397.11 210.99 397.40C211.16 397.55 211.28 398.04 211.28 398.62C211.28 399.30 211.41 399.77 211.71 400.15C211.95 400.45 212.33 401.19 212.56 401.78C213.65 404.61 214.16 406.21 214.17 406.77C214.17 407.11 214.45 407.80 214.79 408.30C215.13 408.80 215.41 409.33 215.41 409.48C215.41 409.63 215.67 410.34 216.00 411.05C217.67 414.68 218.46 416.77 218.80 418.45C218.86 418.74 219.13 419.32 219.42 419.74C219.70 420.15 219.88 420.62 219.83 420.77C219.77 420.92 219.86 421.17 220.04 421.31C220.21 421.46 220.36 421.71 220.36 421.87C220.36 422.10 221.43 424.33 222.19 425.65C222.72 426.59 223.96 429.42 224.29 430.42C224.49 431.06 224.90 432.06 225.19 432.63C225.48 433.21 225.72 433.82 225.72 433.97C225.72 434.13 225.91 434.50 226.13 434.79C226.37 435.09 226.55 435.63 226.55 436.05C226.55 436.61 226.68 436.88 227.12 437.21C227.51 437.49 228.25 438.76 229.37 441.08C230.29 442.98 231.24 444.95 231.49 445.46C231.74 445.97 232.30 447.04 232.75 447.83C233.19 448.63 233.55 449.44 233.56 449.65C233.56 449.85 233.71 450.07 233.88 450.14C234.06 450.20 234.43 450.69 234.72 451.21C235.00 451.74 235.55 452.68 235.94 453.30C236.33 453.93 236.70 454.58 236.77 454.75C236.83 454.92 237.02 455.29 237.18 455.57C237.33 455.85 237.74 456.60 238.07 457.23C238.41 457.85 239.08 458.98 239.58 459.74C240.07 460.50 240.98 461.92 241.59 462.89C242.21 463.86 242.89 464.81 243.11 465.01C243.33 465.21 244.10 466.25 244.81 467.33C245.52 468.41 246.31 469.48 246.56 469.70C246.81 469.93 247.25 470.56 247.52 471.11C247.96 471.98 248.77 472.94 250.31 474.45C250.55 474.68 250.86 475.00 251.01 475.17C252.15 476.47 253.77 477.97 254.50 478.41C255.57 479.06 257.02 478.26 257.57 476.72C257.73 476.27 258.07 475.38 258.32 474.76C258.57 474.14 258.96 473.11 259.18 472.49C259.40 471.87 259.85 470.73 260.19 469.96C260.52 469.20 261.09 467.90 261.44 467.07C261.80 466.25 262.26 465.18 262.47 464.70C262.69 464.21 262.86 463.69 262.86 463.53C262.86 463.38 262.99 463.15 263.16 463.01C263.32 462.88 263.61 462.24 263.81 461.59C264.01 460.95 264.34 460.20 264.55 459.93C264.76 459.66 264.92 459.31 264.92 459.15C264.92 458.78 266.51 455.62 267.01 454.98C267.23 454.70 267.40 454.32 267.40 454.13C267.40 453.94 267.68 453.37 268.02 452.87C268.35 452.37 268.63 451.75 268.63 451.50C268.64 451.11 269.54 448.92 270.11 447.94C270.29 447.64 271.14 445.88 271.82 444.43C272.01 444.03 272.28 443.47 272.43 443.19C272.59 442.91 273.70 440.68 274.91 438.24C276.12 435.80 277.24 433.57 277.39 433.29C277.54 433.00 278.19 431.70 278.84 430.40C280.26 427.53 282.24 423.97 284.01 421.11C284.40 420.49 284.91 419.61 285.16 419.16C285.77 418.05 286.34 417.26 287.26 416.22C287.68 415.74 288.03 415.16 288.03 414.94C288.03 414.72 288.13 414.48 288.24 414.41C288.36 414.33 288.68 413.83 288.96 413.28C289.24 412.73 289.78 412.02 290.17 411.70C290.57 411.36 291.23 410.39 291.71 409.43C292.54 407.78 293.15 406.83 294.54 405.02C294.93 404.51 295.49 403.77 295.77 403.37C297.39 401.11 297.69 400.79 298.11 400.84C298.44 400.88 298.63 400.70 298.87 400.13C299.04 399.71 299.62 398.88 300.16 398.28C301.20 397.10 304.39 393.54 304.81 393.09C305.33 392.52 307.91 390.37 308.07 390.37C308.16 390.37 308.36 390.15 308.50 389.87C308.65 389.59 309.11 389.11 309.53 388.79C309.95 388.47 310.85 387.77 311.52 387.25C312.19 386.72 312.96 386.17 313.23 386.03C313.50 385.89 314.65 385.16 315.78 384.40C316.92 383.65 318.17 382.91 318.57 382.77C318.97 382.62 319.69 382.32 320.17 382.10C320.66 381.88 321.18 381.71 321.33 381.71C321.48 381.71 321.83 381.54 322.10 381.33C322.82 380.79 325.48 379.97 325.93 380.15C326.28 380.29 326.27 380.32 325.82 380.64C325.56 380.83 324.95 381.31 324.48 381.71C323.01 382.95 322.00 383.69 321.25 384.08C320.85 384.28 319.60 385.34 318.46 386.43C316.05 388.73 315.62 389.09 314.94 389.35C314.67 389.45 314.44 389.65 314.44 389.78C314.44 389.91 313.98 390.54 313.42 391.18C312.37 392.35 310.71 394.25 308.40 396.90C307.70 397.72 306.84 398.76 306.50 399.23C306.16 399.70 305.65 400.37 305.36 400.73C304.88 401.33 304.30 402.27 303.33 404.00C303.11 404.40 302.52 405.35 302.03 406.10C301.54 406.85 300.83 407.97 300.45 408.60C300.07 409.22 299.58 409.89 299.37 410.09C299.15 410.29 298.87 410.80 298.76 411.23C298.64 411.66 298.22 412.39 297.83 412.87C297.43 413.34 297.11 413.86 297.11 414.01C297.11 414.17 296.47 415.63 295.69 417.24C294.90 418.86 294.06 420.70 293.81 421.32C293.56 421.94 293.00 423.24 292.57 424.21C291.26 427.15 291.10 427.55 290.50 429.40C290.18 430.39 289.67 431.66 289.38 432.23C289.10 432.81 288.86 433.44 288.86 433.64C288.86 433.85 288.66 434.52 288.42 435.15C287.54 437.44 285.57 443.31 285.56 443.66C285.56 443.86 285.33 444.48 285.05 445.04C284.38 446.35 283.91 447.71 283.91 448.33C283.91 448.85 283.83 449.13 283.10 451.47C282.86 452.22 282.67 453.09 282.67 453.39C282.67 453.69 282.51 454.24 282.32 454.60C281.98 455.26 281.75 456.10 281.45 457.84C281.36 458.35 281.13 459.19 280.95 459.70C280.76 460.21 280.61 461.04 280.61 461.55C280.60 462.06 280.32 463.27 279.99 464.24C279.64 465.23 279.37 466.42 279.37 466.98C279.37 467.52 279.20 468.31 278.99 468.73C278.78 469.15 278.50 469.92 278.36 470.43C278.07 471.45 277.43 473.41 276.98 474.61C276.82 475.04 276.17 476.41 275.55 477.65C274.93 478.89 274.42 480.02 274.42 480.14C274.42 480.27 274.14 480.70 273.80 481.08C273.46 481.47 273.18 481.92 273.18 482.08C273.18 482.39 271.66 484.76 271.32 484.97C271.21 485.04 271.11 485.27 271.11 485.48C271.11 485.68 270.97 485.97 270.78 486.12C270.60 486.27 270.05 487.01 269.56 487.75C267.99 490.13 263.74 493.95 262.66 493.95C262.48 493.95 262.01 494.21 261.62 494.53C260.11 495.74 256.52 496.65 252.85 496.74C250.56 496.80 250.26 496.76 248.83 496.22ZM379.13 486.26C377.86 485.58 374.28 482.31 373.76 481.36C373.60 481.08 373.02 480.37 372.45 479.79C371.88 479.21 371.17 478.24 370.87 477.65C370.57 477.05 370.01 476.12 369.63 475.58C369.25 475.04 368.66 474.04 368.31 473.35C367.97 472.67 367.59 472.05 367.47 471.98C367.36 471.91 367.26 471.60 367.26 471.30C367.26 471.00 367.03 470.43 366.76 470.02C366.20 469.21 365.04 465.94 364.75 464.34C364.50 462.98 364.20 461.16 364.13 460.55C364.07 460.07 364.10 460.06 366.02 459.98C378.24 459.52 381.44 459.24 383.77 458.39C384.28 458.20 384.96 458.05 385.27 458.05C385.59 458.05 386.23 457.85 386.70 457.61C387.34 457.29 387.76 457.21 388.39 457.31C388.97 457.39 389.14 457.37 388.93 457.24C388.68 457.07 388.69 457.02 389.04 456.91C390.16 456.54 391.18 456.01 392.12 455.31C392.69 454.88 393.39 454.47 393.67 454.41C394.59 454.21 394.64 454.17 394.76 453.58C394.83 453.25 395.32 452.34 395.86 451.55C396.85 450.08 397.14 449.26 397.32 447.42C397.43 446.33 397.84 445.67 398.41 445.67C399.13 445.67 400.71 447.89 401.21 449.59C401.39 450.21 401.64 451.04 401.76 451.42C402.03 452.29 402.01 458.05 401.74 458.94C400.55 462.82 399.97 464.49 399.55 465.17C398.53 466.86 397.80 468.37 397.80 468.77C397.80 469.00 397.43 469.72 396.97 470.37C396.52 471.03 396.15 471.68 396.15 471.82C396.15 472.53 393.66 476.70 391.07 480.33C390.20 481.55 386.18 485.50 385.39 485.91C382.98 487.16 381.01 487.27 379.13 486.26ZM112.44 471.46C105.93 464.78 99.66 457.78 95.63 452.68C95.18 452.11 94.48 451.24 94.08 450.77C93.67 450.29 93.18 449.66 92.99 449.38C92.80 449.10 92.31 448.45 91.92 447.94C91.52 447.43 90.97 446.68 90.68 446.29C90.40 445.89 89.84 445.15 89.44 444.64C89.05 444.12 88.49 443.38 88.20 442.98C87.92 442.59 87.36 441.84 86.97 441.33C85.61 439.57 81.02 432.81 78.71 429.16C77.92 427.91 76.84 426.21 76.32 425.39C75.24 423.68 74.72 422.84 73.96 421.53C73.67 421.02 73.02 419.90 72.52 419.05C69.21 413.36 65.17 405.60 62.15 399.14C59.64 393.76 58.26 390.59 56.56 386.30C55.86 384.53 55.35 383.27 54.92 382.22C54.69 381.65 54.29 380.63 54.05 379.95C53.80 379.27 53.23 377.69 52.78 376.44C51.91 374.04 49.86 367.94 49.10 365.48C48.84 364.67 48.70 363.91 48.78 363.78C49.04 363.35 52.15 363.48 52.39 363.93C52.83 364.75 53.23 366.17 53.23 366.91C53.23 367.34 53.37 367.96 53.53 368.28C53.70 368.60 53.97 369.22 54.13 369.66C54.29 370.10 54.62 370.97 54.86 371.59C55.10 372.22 55.30 373.01 55.30 373.35C55.30 373.70 55.46 374.21 55.66 374.49C56.06 375.06 56.93 377.48 56.94 378.05C56.94 378.25 57.13 378.78 57.36 379.23C57.59 379.67 57.77 380.25 57.78 380.51C57.78 380.77 58.06 381.39 58.39 381.89C58.73 382.39 59.01 383.02 59.01 383.29C59.01 383.57 59.15 384.05 59.31 384.37C59.48 384.70 59.84 385.60 60.12 386.38C61.02 388.92 61.28 389.55 61.90 390.78C62.64 392.26 63.13 393.62 63.13 394.23C63.13 394.48 63.30 394.78 63.50 394.88C63.82 395.06 64.14 395.88 64.46 397.40C64.52 397.69 64.79 398.26 65.06 398.65C65.33 399.05 65.61 399.61 65.68 399.89C65.75 400.18 66.04 400.75 66.33 401.18C66.62 401.60 66.85 402.03 66.85 402.15C66.85 402.26 67.28 403.20 67.80 404.24C68.32 405.27 68.93 406.69 69.15 407.37C69.37 408.06 69.76 408.86 70.03 409.14C70.30 409.43 70.81 410.22 71.16 410.90C71.52 411.58 71.89 412.28 71.98 412.45C72.08 412.62 72.36 413.18 72.60 413.69C72.84 414.20 73.12 414.75 73.21 414.92C73.31 415.09 73.54 415.51 73.72 415.85C75.58 419.29 76.04 420.13 76.65 421.11C77.04 421.74 77.81 423.13 78.37 424.21C78.93 425.29 80.17 427.34 81.12 428.78C82.06 430.22 83.12 431.87 83.46 432.46C83.80 433.05 84.29 433.82 84.54 434.18C84.80 434.54 85.17 435.10 85.37 435.42C85.99 436.43 87.26 438.31 87.91 439.17C88.25 439.62 88.84 440.60 89.22 441.33C89.60 442.07 90.17 442.91 90.47 443.19C90.78 443.47 91.21 444.05 91.42 444.46C92.04 445.67 92.96 446.95 93.78 447.73C94.19 448.13 95.05 449.24 95.69 450.21C96.33 451.17 97.18 452.35 97.58 452.82C97.98 453.29 98.59 454.07 98.93 454.54C99.27 455.01 100.02 455.94 100.58 456.61C101.56 457.76 102.13 458.46 104.09 460.95C104.55 461.52 105.66 462.82 106.57 463.83C107.48 464.84 108.68 466.23 109.25 466.93C109.82 467.62 111.54 469.51 113.07 471.11C115.58 473.74 116.78 475.15 116.78 475.47C116.78 475.84 116.05 475.17 112.44 471.46ZM251.55 440.65C251.19 440.28 250.89 439.85 250.89 439.70C250.89 439.43 250.62 438.96 248.81 436.12C247.49 434.03 247.09 433.38 246.26 431.84C245.86 431.11 245.45 430.36 245.35 430.19C245.25 430.02 244.95 429.39 244.68 428.78C244.42 428.17 243.99 427.38 243.73 427.03C243.46 426.68 243.16 426.05 243.05 425.64C242.94 425.23 242.62 424.57 242.33 424.19C242.05 423.80 241.65 423.22 241.45 422.90C241.26 422.57 240.88 421.99 240.63 421.60C240.37 421.21 240.17 420.77 240.17 420.63C240.17 420.49 239.94 420.06 239.66 419.68C239.38 419.30 238.96 418.37 238.72 417.61C238.48 416.83 238.07 416.01 237.78 415.74C237.50 415.48 237.27 415.12 237.27 414.94C237.27 414.76 237.04 414.24 236.77 413.79C235.71 412.06 233.15 406.86 233.15 406.46C233.15 405.98 232.77 405.19 232.01 404.07C231.73 403.65 231.50 403.14 231.50 402.94C231.50 402.73 231.33 402.47 231.13 402.36C230.93 402.25 230.54 401.67 230.28 401.06C230.02 400.46 229.57 399.45 229.29 398.83C229.00 398.21 228.59 397.14 228.38 396.47C228.16 395.80 227.86 395.10 227.71 394.92C227.55 394.75 227.37 394.37 227.30 394.09C227.24 393.80 226.85 393.06 226.45 392.44C226.05 391.82 225.72 391.17 225.72 390.99C225.72 390.81 225.56 390.44 225.36 390.16C225.16 389.88 224.80 389.09 224.56 388.41C223.62 385.80 223.41 385.31 223.13 384.99C222.97 384.81 222.83 384.56 222.83 384.43C222.83 384.30 222.47 383.42 222.03 382.48C220.28 378.74 219.94 377.97 219.94 377.62C219.94 377.10 219.18 375.08 218.75 374.48C218.55 374.20 218.25 373.55 218.09 373.04C217.94 372.53 217.59 371.68 217.33 371.15C217.07 370.62 216.54 369.27 216.16 368.16C215.77 367.04 215.26 365.63 215.02 365.01C214.79 364.40 214.64 363.82 214.70 363.72C214.76 363.63 217.21 363.55 220.13 363.55C226.56 363.55 226.05 363.28 226.51 366.88C226.59 367.51 226.79 368.20 226.96 368.39C227.22 368.71 227.51 369.44 228.36 371.91C228.98 373.69 229.44 375.31 229.44 375.75C229.44 376.02 229.73 377.03 230.08 377.99C231.91 383.04 231.79 382.66 232.28 384.90C232.38 385.36 232.62 386.03 232.81 386.39C232.99 386.75 233.15 387.27 233.15 387.55C233.15 387.82 233.34 388.28 233.56 388.57C233.79 388.86 233.98 389.29 233.98 389.54C233.98 389.78 234.14 390.32 234.35 390.74C234.56 391.16 234.93 392.20 235.19 393.05C235.45 393.90 235.93 395.48 236.25 396.56C236.58 397.64 236.89 398.76 236.95 399.05C237.01 399.34 237.29 399.93 237.58 400.35C237.87 400.77 238.10 401.26 238.10 401.44C238.10 401.62 238.28 402.34 238.50 403.03C238.72 403.73 239.01 404.72 239.16 405.23C239.30 405.74 239.58 406.50 239.79 406.92C240.00 407.34 240.17 407.88 240.17 408.11C240.17 408.35 240.49 409.18 240.88 409.97C241.28 410.75 241.92 412.31 242.30 413.42C242.69 414.53 243.10 415.72 243.22 416.06C243.34 416.40 243.56 417.10 243.70 417.61C243.84 418.12 244.12 418.88 244.33 419.30C244.54 419.72 244.70 420.38 244.70 420.77C244.70 421.16 244.89 421.70 245.12 422.00C245.34 422.28 245.53 422.62 245.53 422.74C245.53 422.95 245.79 423.57 246.90 426.03C247.67 427.74 249.24 432.58 249.24 433.25C249.24 433.58 249.42 434.07 249.63 434.34C250.24 435.13 250.66 436.06 251.32 438.08C251.66 439.13 252.08 440.13 252.24 440.31C253.04 441.19 252.38 441.50 251.55 440.65ZM373.88 437.95C373.32 437.27 374.21 437.05 379.33 436.58C380.35 436.49 381.70 436.31 382.32 436.18C382.95 436.05 383.97 435.88 384.59 435.78C385.22 435.69 386.24 435.46 386.86 435.26C387.49 435.07 388.32 434.83 388.72 434.73C391.71 434.02 394.08 433.28 394.70 432.87C394.99 432.69 395.64 432.41 396.15 432.25C397.25 431.91 403.02 428.14 403.84 427.22C404.15 426.87 404.64 426.16 404.93 425.65C406.83 422.28 407.06 421.49 407.22 417.88C407.35 414.94 407.63 414.71 409.16 416.25C410.99 418.08 412.01 419.41 412.24 420.28C412.36 420.73 412.55 421.15 412.66 421.22C413.40 421.68 414.31 424.69 414.31 426.68C414.31 427.74 413.31 429.51 412.00 430.76C411.07 431.64 409.00 432.87 408.44 432.87C408.19 432.87 407.58 433.13 407.07 433.45C406.57 433.77 405.74 434.15 405.23 434.31C404.72 434.47 404.02 434.74 403.68 434.91C403.34 435.08 402.74 435.29 402.34 435.38C401.94 435.47 401.20 435.64 400.69 435.77C400.18 435.90 399.25 436.08 398.62 436.18C397.04 436.44 395.59 436.73 394.50 437.01C392.91 437.42 389.33 437.69 386.09 437.63C385.78 437.63 384.55 437.72 383.36 437.84C379.39 438.24 374.17 438.30 373.88 437.95ZM364.79 410.80C364.62 410.69 363.85 410.60 363.08 410.59C362.32 410.59 361.69 410.51 361.69 410.40C361.69 410.11 366.98 409.79 368.86 409.97C369.06 409.98 369.64 409.89 370.15 409.76C371.19 409.49 373.91 409.21 377.79 408.99C379.31 408.90 380.57 408.72 380.86 408.56C381.85 407.99 383.00 407.74 386.45 407.32C387.19 407.23 388.21 407.00 388.72 406.81C389.23 406.63 389.91 406.47 390.22 406.47C390.54 406.47 391.25 406.23 391.81 405.95C392.88 405.41 398.20 403.58 398.70 403.58C399.00 403.58 401.37 402.20 402.34 401.47C402.62 401.26 403.83 400.45 405.02 399.67C406.21 398.90 407.67 397.76 408.26 397.15C409.45 395.91 411.57 392.81 411.76 392.02C411.83 391.74 412.13 391.04 412.42 390.47C413.17 389.04 413.55 383.96 413.14 380.98C412.96 379.75 412.96 379.75 411.42 379.78C410.57 379.80 409.31 379.91 408.63 380.03C407.95 380.15 406.93 380.32 406.36 380.42C405.79 380.52 405.10 380.73 404.81 380.89C404.53 381.05 403.69 381.24 402.96 381.33C402.22 381.41 401.11 381.58 400.48 381.71C398.61 382.09 397.45 382.17 397.03 381.94C396.74 381.79 396.39 381.82 395.72 382.07C395.21 382.26 393.71 382.49 392.33 382.58C390.22 382.72 383.17 383.10 382.07 383.13C381.87 383.13 381.43 383.15 381.09 383.16C379.30 383.21 377.12 383.16 375.94 383.04C375.07 382.95 374.34 382.99 373.81 383.17C373.17 383.38 372.87 383.38 372.31 383.17C371.74 382.97 371.45 382.97 370.89 383.17C370.32 383.38 370.01 383.38 369.39 383.18C368.92 383.03 366.87 382.89 364.27 382.83C358.36 382.71 355.50 382.54 355.50 382.32C355.50 382.22 357.48 382.10 359.89 382.05C362.30 382.01 364.78 381.85 365.41 381.71C366.03 381.57 367.79 381.38 369.33 381.28C372.80 381.06 376.04 380.67 378.54 380.15C378.89 380.07 379.38 380.12 379.62 380.25C379.96 380.43 380.19 380.41 380.72 380.12C381.09 379.93 381.93 379.69 382.58 379.60C385.62 379.18 386.20 379.07 387.07 378.75C387.58 378.56 388.54 378.41 389.19 378.41C389.98 378.41 390.67 378.26 391.20 377.99C391.64 377.76 392.29 377.58 392.64 377.58C392.99 377.58 393.64 377.39 394.09 377.17C394.53 376.94 395.05 376.75 395.25 376.75C395.62 376.75 395.97 376.66 398.24 375.95C398.99 375.71 399.76 375.52 399.94 375.52C400.12 375.52 401.41 374.97 402.80 374.30C406.61 372.47 408.10 371.80 408.35 371.80C408.47 371.80 409.98 370.73 411.70 369.43C417.62 364.94 417.49 365.04 417.61 364.32C417.71 363.65 417.71 363.65 425.45 363.65C433.18 363.65 433.18 363.65 433.25 364.57C433.29 365.19 433.17 365.84 432.87 366.53C432.62 367.11 432.28 367.90 432.11 368.29C431.54 369.64 430.35 371.23 429.41 371.88C428.90 372.23 427.82 373.01 427.02 373.60C426.21 374.20 425.43 374.68 425.27 374.69C425.12 374.69 424.75 374.86 424.45 375.06C424.15 375.27 423.48 375.57 422.97 375.72C422.46 375.88 421.70 376.17 421.28 376.38C420.86 376.58 420.11 376.75 419.62 376.75C418.93 376.75 418.56 376.89 418.01 377.36C417.54 377.76 417.06 377.98 416.62 377.98C415.59 378.00 413.48 379.15 413.48 379.70C413.48 379.81 414.30 380.75 415.30 381.79C416.30 382.82 417.27 383.90 417.47 384.18C417.66 384.47 418.14 385.12 418.53 385.63C421.47 389.45 422.33 391.43 422.50 394.73C422.59 396.49 422.57 396.54 421.73 398.22C420.14 401.39 419.65 401.92 417.19 403.18C416.12 403.73 415.00 404.31 414.72 404.47C413.25 405.29 410.31 406.46 409.71 406.46C409.50 406.46 409.04 406.62 408.67 406.82C408.31 407.01 407.50 407.23 406.88 407.32C406.25 407.40 405.32 407.57 404.81 407.70C404.30 407.83 403.61 407.99 403.27 408.05C402.93 408.12 402.42 408.33 402.13 408.53C401.85 408.73 401.20 408.95 400.69 409.03C400.18 409.10 399.16 409.25 398.42 409.36C392.19 410.27 390.87 410.40 387.17 410.49C385.24 410.53 383.33 410.68 382.91 410.81C382.48 410.95 381.87 410.99 381.47 410.91C381.09 410.83 380.45 410.77 380.06 410.79C373.02 411.04 373.06 411.05 372.42 410.59C371.82 410.16 371.82 410.16 370.98 410.59C370.33 410.92 370.05 410.97 369.74 410.80C369.45 410.64 369.20 410.64 368.93 410.79C368.42 411.06 365.20 411.07 364.79 410.80ZM38.05 270.00C37.98 269.83 37.98 269.06 38.05 268.29C38.54 262.78 38.93 258.88 39.20 256.72C39.72 252.55 39.82 251.74 40.01 250.38C40.21 249.03 40.32 248.33 40.85 245.12C40.97 244.44 41.15 243.35 41.26 242.69C41.36 242.04 41.55 241.02 41.67 240.42C42.07 238.41 42.30 237.28 42.50 236.30C42.79 234.85 43.08 233.39 43.31 232.22C43.42 231.65 43.61 230.77 43.74 230.26C43.87 229.75 44.05 228.92 44.15 228.40C44.25 227.89 44.43 227.08 44.55 226.60C44.67 226.12 44.87 225.35 44.98 224.90C45.09 224.44 45.28 223.70 45.39 223.25C45.51 222.79 45.68 222.07 45.78 221.65C45.88 221.22 46.12 220.36 46.31 219.74C46.51 219.11 46.76 218.23 46.87 217.78C47.06 217.00 47.33 216.09 48.92 210.81C49.73 208.10 51.72 202.13 52.78 199.21C53.23 197.96 53.80 196.38 54.05 195.70C54.29 195.02 54.66 194.05 54.87 193.54C55.44 192.14 56.07 190.56 56.53 189.41C57.59 186.77 57.86 186.11 58.44 184.77C62.51 175.27 67.76 164.79 72.52 156.60C73.02 155.75 73.67 154.64 73.96 154.13C74.72 152.82 75.24 151.97 76.32 150.26C76.84 149.44 77.92 147.75 78.71 146.49C81.02 142.85 85.61 136.08 86.97 134.32C87.36 133.81 87.92 133.07 88.20 132.67C88.49 132.27 89.05 131.53 89.44 131.02C89.84 130.51 90.40 129.76 90.68 129.37C90.97 128.97 91.52 128.23 91.92 127.72C92.31 127.21 92.80 126.56 92.99 126.27C93.18 125.99 93.67 125.37 94.08 124.89C94.48 124.41 95.18 123.55 95.63 122.97C96.51 121.86 97.90 120.20 99.76 118.02C102.83 114.41 103.16 114.11 103.16 114.84C103.16 115.02 103.35 115.22 103.58 115.28C104.17 115.43 104.12 115.53 102.73 116.89C102.04 117.57 101.25 118.56 100.98 119.10C100.70 119.64 100.27 120.21 100.01 120.38C99.75 120.55 99.27 121.11 98.95 121.62C98.62 122.14 98.29 122.56 98.20 122.56C98.11 122.56 97.52 123.32 96.88 124.26C95.30 126.56 94.88 127.13 94.38 127.63C94.14 127.87 93.59 128.61 93.15 129.28C92.71 129.95 92.00 130.89 91.57 131.37C91.14 131.85 90.78 132.38 90.78 132.55C90.78 132.92 89.75 134.49 89.13 135.04C88.88 135.27 88.46 135.88 88.20 136.40C87.94 136.91 87.57 137.46 87.38 137.62C87.19 137.78 86.82 138.33 86.55 138.86C86.29 139.38 85.92 139.94 85.73 140.10C85.54 140.25 85.21 140.73 84.99 141.16C84.77 141.59 84.08 142.69 83.46 143.61C82.83 144.53 82.08 145.76 81.78 146.35C81.48 146.94 80.97 147.73 80.65 148.10C80.32 148.47 80.06 148.90 80.06 149.06C80.06 149.22 79.57 150.07 78.97 150.95C77.66 152.90 76.06 155.71 75.41 157.22C75.34 157.39 74.60 158.78 73.76 160.32C72.93 161.85 71.76 164.08 71.17 165.27C70.58 166.46 70.01 167.57 69.91 167.74C69.82 167.91 69.54 168.47 69.30 168.98C67.41 173.02 66.71 174.41 66.50 174.58C66.37 174.69 66.10 175.31 65.90 175.96C65.70 176.60 65.37 177.35 65.16 177.62C64.96 177.89 64.79 178.28 64.79 178.47C64.79 178.67 64.55 179.18 64.26 179.60C63.97 180.02 63.52 180.99 63.25 181.74C62.38 184.21 62.10 184.88 61.58 185.91C61.30 186.46 61.07 187.11 61.07 187.35C61.07 187.58 60.83 188.25 60.54 188.82C60.25 189.40 59.84 190.41 59.63 191.06C59.42 191.71 59.03 192.70 58.75 193.25C58.48 193.80 58.14 194.68 58.00 195.19C57.86 195.70 57.65 196.39 57.53 196.73C57.41 197.07 57.13 197.91 56.91 198.59C56.68 199.27 56.40 200.11 56.29 200.45C56.17 200.79 55.71 202.18 55.26 203.54C54.81 204.90 54.34 206.30 54.23 206.64C53.18 209.67 51.99 213.50 51.99 213.85C51.99 214.04 51.84 214.49 51.65 214.85C51.46 215.21 51.23 215.93 51.14 216.44C51.00 217.31 50.83 218.05 50.32 220.05C50.21 220.50 50.03 221.29 49.93 221.80C49.56 223.71 49.38 224.39 49.10 224.90C48.84 225.39 48.71 225.94 48.29 228.61C48.19 229.23 48.00 230.16 47.87 230.67C47.74 231.18 47.55 232.02 47.46 232.53C47.36 233.04 47.17 233.88 47.04 234.39C46.90 234.90 46.73 236.01 46.64 236.86C46.56 237.71 46.33 238.92 46.14 239.55C45.94 240.17 45.69 240.97 45.59 241.31C45.48 241.66 45.39 242.45 45.39 243.07C45.39 243.68 45.23 244.61 45.04 245.12C44.85 245.63 44.62 246.83 44.53 247.80C44.44 248.76 44.27 250.34 44.15 251.31C43.80 254.16 43.54 256.64 43.33 258.94C43.23 260.13 43.04 261.80 42.92 262.65C42.79 263.51 42.61 265.18 42.51 266.37C42.20 270.32 42.29 270.18 40.07 270.25C38.53 270.29 38.14 270.24 38.05 270.00ZM145.20 269.93C144.90 269.59 144.80 268.96 144.51 265.49C144.42 264.34 144.45 264.08 144.72 263.97C145.21 263.79 145.12 263.31 144.58 263.24C144.16 263.18 144.11 263.03 144.01 261.62C143.96 260.77 143.77 259.84 143.60 259.56C143.30 259.04 143.04 256.84 142.90 253.54C142.86 252.56 142.75 251.63 142.65 251.48C142.55 251.33 142.41 250.51 142.33 249.66C142.26 248.81 142.09 247.69 141.95 247.18C141.70 246.23 141.47 244.11 141.13 239.55C141.03 238.13 140.84 236.27 140.72 235.42C140.24 232.13 140.07 230.47 139.89 227.58C139.78 225.93 139.59 223.61 139.46 222.42C139.17 219.67 139.16 202.91 139.46 199.00C139.91 193.08 140.08 191.12 140.28 189.72C140.48 188.37 140.60 187.62 141.13 184.46C141.24 183.78 141.42 182.68 141.52 182.03C141.63 181.38 141.82 180.43 141.95 179.92C142.25 178.72 142.55 177.21 142.76 175.79C142.85 175.17 143.09 174.15 143.28 173.52C143.48 172.90 143.72 172.04 143.83 171.61C144.50 168.89 144.55 168.71 145.27 166.82C145.49 166.25 145.67 165.62 145.67 165.42C145.67 165.22 145.95 164.50 146.29 163.82C146.63 163.15 146.91 162.45 146.91 162.27C146.91 161.56 148.44 157.50 149.20 156.19C149.53 155.63 150.17 154.25 150.43 153.53C150.57 153.15 151.09 152.24 151.58 151.50C152.08 150.77 152.43 150.09 152.37 149.99C152.22 149.76 153.73 146.75 154.63 145.47C155.02 144.93 155.51 144.13 155.74 143.68C155.97 143.24 156.49 142.56 156.91 142.16C157.33 141.76 157.86 141.07 158.09 140.62C158.65 139.53 159.19 138.77 160.32 137.49C160.83 136.90 161.52 136.03 161.86 135.54C162.76 134.25 167.44 129.54 168.83 128.53C169.48 128.05 170.01 127.58 170.01 127.49C170.01 127.32 170.40 127.01 173.90 124.35C175.87 122.85 177.55 121.79 178.52 121.45C179.17 121.22 180.18 120.68 182.25 119.44C182.80 119.11 183.45 118.84 183.71 118.84C183.96 118.84 184.58 118.59 185.09 118.27C185.59 117.96 186.65 117.50 187.45 117.25C188.24 117.01 189.40 116.66 190.03 116.46C191.72 115.94 192.67 115.73 194.15 115.54C194.89 115.45 195.91 115.26 196.42 115.13C198.69 114.53 201.86 114.40 210.45 114.52C211.36 114.54 212.27 114.54 212.47 114.52C213.16 114.47 214.90 114.86 215.66 115.24C216.29 115.55 216.52 115.57 216.96 115.37C217.33 115.20 217.61 115.19 217.88 115.34C218.09 115.45 218.52 115.54 218.82 115.54C219.13 115.54 219.99 115.74 220.74 115.97C223.01 116.69 223.36 116.78 223.73 116.78C223.93 116.78 224.54 117.01 225.10 117.29C225.65 117.57 226.78 118.05 227.62 118.34C228.45 118.64 229.96 119.18 230.98 119.54C232.00 119.90 233.27 120.45 233.79 120.76C234.31 121.07 234.94 121.32 235.18 121.32C235.74 121.32 240.94 123.91 242.81 125.12C243.57 125.60 244.98 126.50 245.94 127.10C246.91 127.70 248.19 128.53 248.80 128.94C249.41 129.34 250.57 130.11 251.38 130.64C252.19 131.17 253.18 131.88 253.58 132.21C253.97 132.53 254.76 133.11 255.33 133.49C255.90 133.87 256.89 134.65 257.54 135.23C261.69 138.93 263.39 140.50 265.84 142.85C267.36 144.31 268.82 145.65 269.08 145.83C269.35 146.00 271.47 148.04 273.80 150.35C276.13 152.66 278.27 154.71 278.55 154.91C278.84 155.10 279.69 155.88 280.46 156.64C281.22 157.40 282.14 158.22 282.51 158.48C282.88 158.73 283.83 159.53 284.63 160.25C291.44 166.44 291.62 166.58 293.71 167.84C295.96 169.20 297.07 169.96 297.98 170.77C298.99 171.66 300.83 172.58 303.12 173.32C304.13 173.65 305.17 174.04 305.42 174.18C305.86 174.41 306.28 174.50 309.18 174.98C311.75 175.40 316.93 175.12 318.57 174.47C319.08 174.27 320.41 173.78 321.53 173.39C322.64 173.00 324.01 172.46 324.56 172.18C325.12 171.89 325.66 171.66 325.78 171.66C325.89 171.66 326.67 171.22 327.51 170.68C328.36 170.15 329.91 169.15 330.98 168.47C332.04 167.79 333.05 167.19 333.21 167.15C333.59 167.06 335.43 165.77 336.93 164.54C337.56 164.02 338.53 163.24 339.10 162.79C339.67 162.34 340.64 161.56 341.27 161.05C343.03 159.60 343.31 159.43 344.12 159.30C344.70 159.20 344.89 159.07 344.94 158.71C344.98 158.46 345.39 157.95 345.85 157.58C346.69 156.92 348.96 154.87 352.20 151.86C353.11 151.01 354.27 149.98 354.77 149.59C357.44 147.47 358.21 146.91 358.46 146.91C358.85 146.91 360.41 145.52 360.56 145.04C360.63 144.81 361.08 144.43 361.55 144.19C362.02 143.95 362.99 143.19 363.70 142.51C364.41 141.83 365.54 140.89 366.21 140.42C370.78 137.27 371.81 136.59 372.05 136.59C372.20 136.59 372.65 136.32 373.04 136.00C373.44 135.67 374.13 135.22 374.59 134.99C375.04 134.76 376.21 134.08 377.17 133.48C381.72 130.66 382.86 129.99 383.08 129.99C383.22 129.99 383.78 129.71 384.32 129.37C384.87 129.03 385.80 128.56 386.40 128.34C387.00 128.11 387.97 127.73 388.57 127.49C389.16 127.25 390.01 126.92 390.45 126.76C390.89 126.60 391.51 126.33 391.83 126.16C392.15 126.00 392.61 125.86 392.84 125.86C393.08 125.86 393.82 125.58 394.50 125.24C395.17 124.90 395.89 124.62 396.09 124.62C396.51 124.62 398.07 124.10 398.71 123.75C398.95 123.62 399.56 123.44 400.07 123.36C400.96 123.21 401.68 123.04 403.63 122.54C404.11 122.41 405.29 122.24 406.26 122.15C407.22 122.06 408.43 121.86 408.94 121.71C409.62 121.52 411.58 121.45 416.16 121.46C422.36 121.48 424.64 121.63 426.07 122.14C426.46 122.29 427.30 122.48 427.92 122.57C430.27 122.93 431.18 123.14 433.08 123.78C434.16 124.14 435.39 124.66 435.81 124.94C436.23 125.22 436.68 125.45 436.80 125.45C436.92 125.45 437.54 125.71 438.19 126.04C438.84 126.36 439.61 126.68 439.91 126.75C440.20 126.82 440.85 127.21 441.35 127.61C441.85 128.01 442.47 128.33 442.71 128.33C443.24 128.34 446.58 130.49 447.96 131.72C450.49 133.96 451.43 134.77 452.18 135.32C453.19 136.07 457.52 140.56 458.36 141.73C458.70 142.20 459.22 142.89 459.51 143.25C459.81 143.62 460.21 144.24 460.41 144.64C460.61 145.03 461.17 145.78 461.65 146.29C462.13 146.80 462.77 147.63 463.08 148.14C463.38 148.65 464.00 149.58 464.45 150.20C465.70 151.94 466.48 153.90 466.03 154.16C465.83 154.27 465.73 154.45 465.79 154.55C465.98 154.86 466.30 154.78 466.30 154.42C466.30 154.03 466.73 154.12 466.92 154.55C467.07 154.86 467.32 155.37 467.68 156.09C467.80 156.31 468.18 157.10 468.54 157.84C468.90 158.58 469.27 159.32 469.37 159.49C469.54 159.79 470.87 162.73 471.55 164.32C472.07 165.54 472.90 168.08 472.90 168.46C472.90 168.64 473.09 169.16 473.31 169.60C473.54 170.05 473.73 170.67 473.73 170.99C473.73 171.31 473.92 172.08 474.16 172.70C475.44 176.00 475.78 177.10 476.20 179.30C476.30 179.81 476.49 180.64 476.62 181.16C477.04 182.85 477.49 185.35 477.84 187.96C477.94 188.70 478.13 189.72 478.27 190.23C478.60 191.48 478.87 193.85 479.10 197.46C479.20 199.10 479.38 201.51 479.50 202.82C479.62 204.12 479.72 205.54 479.72 205.97C479.72 206.39 479.72 207.02 479.73 207.36C479.79 211.72 479.38 222.60 479.11 223.87C478.87 224.95 478.48 227.89 478.48 228.66C478.47 228.86 478.47 229.19 478.47 229.38C478.47 229.82 478.15 232.50 477.87 234.49C477.42 237.63 477.28 238.44 477.03 239.13C476.89 239.53 476.70 240.27 476.60 240.78C476.50 241.29 476.32 242.22 476.20 242.85C476.08 243.47 475.89 244.49 475.79 245.12C475.37 247.66 475.20 248.39 474.67 250.07C473.93 252.39 472.99 255.52 472.70 256.67C472.15 258.81 470.72 263.05 470.18 264.14C469.86 264.79 469.60 265.52 469.60 265.75C469.60 265.98 469.32 266.73 468.98 267.40C468.64 268.07 468.36 268.85 468.36 269.12C468.36 270.27 468.23 270.29 460.67 270.29C456.86 270.29 453.69 270.21 453.63 270.12C453.43 269.79 454.09 268.34 454.65 267.90C455.19 267.47 455.20 267.42 454.88 266.97C454.49 266.42 454.59 265.45 455.19 263.80C455.40 263.23 455.57 262.50 455.57 262.18C455.57 261.86 455.73 261.31 455.92 260.94C456.29 260.23 456.52 259.32 456.82 257.44C457.58 252.77 457.74 251.92 458.12 250.89C458.30 250.38 458.45 249.65 458.46 249.26C458.46 248.87 458.65 248.00 458.89 247.33C459.25 246.31 459.28 246.02 459.07 245.52C458.94 245.19 458.90 244.76 458.98 244.55C459.07 244.35 459.22 243.65 459.32 243.00C459.80 239.69 460.15 237.92 460.38 237.55C460.45 237.43 460.40 237.05 460.27 236.70C460.07 236.17 460.11 235.84 460.51 234.63C460.86 233.60 460.95 233.00 460.84 232.50C460.62 231.54 460.66 230.22 460.95 228.40C461.27 226.41 461.28 208.48 460.96 205.71C460.84 204.63 460.70 203.12 460.65 202.36C460.60 201.60 460.48 200.86 460.39 200.71C460.31 200.57 460.21 199.83 460.19 199.07C460.16 198.31 460.04 197.51 459.92 197.28C459.80 197.05 459.70 196.30 459.70 195.60C459.70 194.81 459.57 194.09 459.35 193.68C459.15 193.32 458.93 192.51 458.85 191.88C458.76 191.26 458.59 190.33 458.46 189.82C458.33 189.31 458.15 188.47 458.06 187.96C457.97 187.45 457.66 186.32 457.35 185.45C457.05 184.58 456.81 183.44 456.81 182.91C456.81 182.03 456.46 181.04 455.91 180.36C455.79 180.21 455.49 179.51 455.24 178.81C454.75 177.44 453.80 174.90 453.14 173.17C452.91 172.57 452.47 171.69 452.17 171.21C451.40 169.97 450.42 168.36 449.69 167.12C449.35 166.54 448.51 165.23 447.83 164.21C447.15 163.19 446.41 162.08 446.18 161.73C445.64 160.92 439.86 155.21 438.61 154.26C437.07 153.09 434.94 151.86 434.45 151.85C434.21 151.85 433.78 151.67 433.49 151.44C433.18 151.20 432.65 151.04 432.15 151.03C431.70 151.03 430.91 150.88 430.40 150.69C425.92 149.08 415.48 149.08 411.00 150.69C410.49 150.88 409.63 151.03 409.09 151.03C408.54 151.03 407.83 151.17 407.51 151.33C407.19 151.50 406.57 151.77 406.13 151.93C405.69 152.09 404.82 152.42 404.20 152.66C403.58 152.90 402.88 153.09 402.64 153.09C402.41 153.09 401.90 153.37 401.51 153.71C401.11 154.04 400.55 154.32 400.26 154.32C399.98 154.33 399.65 154.43 399.53 154.54C399.42 154.65 398.49 155.20 397.48 155.75C394.28 157.48 392.80 158.35 390.81 159.66C389.46 160.56 388.75 160.91 388.47 160.82C388.18 160.73 388.04 160.81 387.96 161.12C387.90 161.35 387.37 161.81 386.79 162.14C385.71 162.75 383.65 164.22 382.29 165.36C381.88 165.71 380.91 166.50 380.15 167.13C379.38 167.75 378.14 168.82 377.39 169.52C376.65 170.21 375.80 170.93 375.52 171.12C374.67 171.69 366.86 179.50 366.55 180.09C366.25 180.66 357.31 189.54 355.20 191.37C353.31 193.00 351.73 194.16 351.17 194.30C350.89 194.37 350.43 194.64 350.14 194.89C349.86 195.15 349.06 195.86 348.38 196.48C347.70 197.10 346.82 197.77 346.42 197.97C346.03 198.17 345.49 198.52 345.23 198.76C344.68 199.27 343.27 200.10 341.68 200.87C340.29 201.54 339.44 201.98 337.04 203.26C336.01 203.81 334.97 204.25 334.71 204.26C334.45 204.26 333.99 204.43 333.68 204.63C333.38 204.82 332.85 205.09 332.51 205.23C329.96 206.20 328.29 206.73 327.79 206.74C327.47 206.74 326.92 206.89 326.55 207.08C325.72 207.52 324.65 207.77 322.70 207.98C321.84 208.07 320.73 208.25 320.22 208.39C317.56 209.09 309.22 209.36 306.81 208.82C306.18 208.68 304.98 208.49 304.13 208.39C301.68 208.11 300.57 207.88 299.86 207.50C299.49 207.31 298.85 207.15 298.43 207.15C298.00 207.15 297.35 207.06 296.97 206.95C296.59 206.83 295.94 206.64 295.51 206.52C294.74 206.30 293.45 205.80 291.79 205.07C291.31 204.85 290.73 204.68 290.51 204.68C290.13 204.68 287.99 203.76 286.80 203.09C286.51 202.93 285.77 202.57 285.14 202.27C282.46 201.02 279.38 199.34 278.62 198.71C278.27 198.42 277.53 197.92 276.97 197.61C274.51 196.24 270.42 193.42 269.57 192.50C269.23 192.14 268.39 191.47 267.71 191.01C267.03 190.55 265.95 189.70 265.32 189.12C264.69 188.54 263.62 187.65 262.96 187.14C260.76 185.45 254.05 179.00 251.72 176.33C250.87 175.36 250.02 174.56 249.83 174.56C249.64 174.55 249.31 174.34 249.10 174.09C248.89 173.83 248.33 173.35 247.86 173.01C247.39 172.67 246.26 171.83 245.35 171.15C244.43 170.47 243.42 169.72 243.08 169.50C242.75 169.27 242.12 168.82 241.68 168.51C241.24 168.19 240.30 167.54 239.57 167.06C238.85 166.59 237.78 165.87 237.19 165.47C236.60 165.08 235.66 164.45 235.10 164.09C234.54 163.72 233.59 163.07 232.99 162.64C230.87 161.12 224.83 157.92 220.87 156.24C220.08 155.90 219.07 155.46 218.62 155.27C217.41 154.75 214.86 153.92 214.48 153.92C214.30 153.92 213.85 153.76 213.49 153.57C213.12 153.38 212.41 153.15 211.90 153.07C211.39 152.98 210.55 152.81 210.04 152.68C206.76 151.85 201.26 151.84 198.13 152.66C197.64 152.79 196.90 152.97 196.48 153.06C196.05 153.16 195.19 153.48 194.57 153.77C193.94 154.06 193.12 154.42 192.74 154.56C192.36 154.70 191.41 155.38 190.63 156.07C189.85 156.76 188.87 157.60 188.46 157.93C188.05 158.27 187.61 158.76 187.49 159.03C187.36 159.30 186.92 159.70 186.51 159.91C185.97 160.19 185.72 160.47 185.63 160.91C185.56 161.25 185.24 161.83 184.91 162.21C184.58 162.59 184.14 163.22 183.94 163.62C183.73 164.01 183.40 164.57 183.19 164.86C182.98 165.14 182.61 165.88 182.37 166.51C182.13 167.13 181.83 167.92 181.70 168.26C181.57 168.60 181.31 169.11 181.13 169.39C180.94 169.68 180.67 170.36 180.51 170.91C180.36 171.46 180.07 172.00 179.87 172.10C179.64 172.23 179.50 172.54 179.50 172.95C179.50 173.30 179.42 173.88 179.31 174.23C179.21 174.58 178.96 175.37 178.77 176.00C178.57 176.62 178.34 177.64 178.25 178.27C178.16 178.89 177.98 179.82 177.85 180.33C177.72 180.84 177.54 181.77 177.44 182.39C177.35 183.02 177.16 183.95 177.03 184.46C176.39 187.00 176.37 187.13 175.78 195.91C175.42 201.27 175.27 209.16 175.44 213.65C175.58 217.30 175.67 223.54 175.62 224.85C175.61 225.04 175.70 226.18 175.81 227.37C175.99 229.16 176.12 234.58 176.02 235.99C175.99 236.40 176.28 238.27 176.63 239.96C176.85 241.02 176.94 242.06 177.42 248.93C177.52 250.41 177.72 252.13 177.85 252.75C177.99 253.38 178.18 254.91 178.28 256.16C178.46 258.46 178.47 258.71 178.45 259.71C178.44 260.03 178.54 260.70 178.68 261.21C179.23 263.32 179.90 269.29 179.65 269.94C179.44 270.49 145.69 270.48 145.20 269.93ZM191.79 269.68C191.59 269.30 191.47 268.52 191.47 267.60C191.47 266.80 191.39 265.98 191.29 265.79C191.18 265.60 191.05 264.14 190.99 262.55C190.93 260.96 190.77 259.25 190.63 258.73C190.49 258.22 190.30 256.00 190.21 253.78C189.91 246.79 189.69 243.17 189.55 242.74C189.44 242.42 189.30 235.86 189.21 226.75C189.19 225.02 189.43 217.23 189.52 216.54C189.58 216.09 189.72 214.93 189.82 213.96C189.93 213.00 190.11 211.51 190.24 210.66C190.36 209.81 190.46 208.76 190.45 208.34C190.44 207.91 190.44 207.22 190.43 206.79C190.42 205.80 190.75 203.40 191.06 202.20C191.19 201.69 191.38 200.67 191.48 199.93C191.64 198.65 192.10 196.32 192.49 194.77C192.59 194.38 192.77 193.68 192.88 193.23C193.39 191.19 193.67 190.43 194.52 188.70C195.02 187.69 195.60 186.33 195.81 185.68C196.53 183.41 197.18 182.44 200.29 178.89C200.89 178.21 201.38 177.58 201.38 177.48C201.38 177.39 202.10 176.84 202.97 176.25C205.22 174.75 206.69 174.30 209.83 174.12C211.25 174.04 212.73 173.91 213.11 173.83C213.60 173.72 214.24 173.81 215.27 174.13C217.84 174.92 218.01 174.97 218.37 174.97C218.56 174.97 219.27 175.24 219.94 175.58C220.62 175.93 221.28 176.20 221.42 176.20C221.78 176.20 225.58 178.52 227.30 179.79C228.69 180.82 229.51 181.49 232.00 183.65C232.60 184.18 233.37 184.77 233.72 184.98C234.07 185.18 234.47 185.57 234.61 185.83C234.75 186.10 235.03 186.31 235.24 186.31C235.44 186.31 235.66 186.40 235.73 186.52C235.79 186.63 236.57 187.25 237.44 187.90C238.31 188.54 239.55 189.54 240.20 190.12C242.12 191.84 243.44 192.94 244.83 193.97C246.26 195.02 247.75 196.30 250.24 198.61C251.11 199.42 252.39 200.46 253.08 200.92C253.77 201.38 254.76 202.23 255.28 202.81C255.80 203.38 256.34 203.85 256.50 203.86C256.65 203.86 257.16 204.16 257.64 204.53C258.11 204.89 259.23 205.74 260.11 206.42C261.00 207.10 262.06 207.93 262.47 208.28C262.88 208.62 263.75 209.32 264.41 209.83C265.06 210.35 266.08 211.18 266.68 211.69C267.27 212.20 268.30 213.04 268.95 213.55C269.61 214.06 270.35 214.69 270.60 214.94C270.85 215.20 271.17 215.41 271.31 215.41C271.63 215.41 273.17 216.47 273.69 217.06C273.92 217.31 274.76 217.97 275.55 218.51C276.34 219.06 277.46 219.88 278.03 220.34C279.06 221.18 282.39 223.55 284.41 224.90C292.87 230.54 296.96 233.15 297.32 233.15C297.42 233.15 297.94 233.42 298.49 233.74C302.06 235.86 302.16 235.92 308.51 238.90C309.51 239.37 310.50 239.75 310.73 239.75C310.95 239.75 311.53 239.93 312.01 240.14C312.50 240.36 313.15 240.64 313.46 240.76C316.33 241.88 307.34 241.26 303.51 240.07C302.88 239.88 302.00 239.63 301.55 239.52C299.90 239.11 296.60 237.94 294.53 237.04C291.78 235.83 289.37 234.74 288.96 234.52C288.73 234.40 287.57 233.78 286.38 233.14C281.07 230.28 279.95 229.63 276.57 227.46C273.83 225.69 273.25 225.31 272.46 224.73C272.00 224.40 271.41 224.01 271.14 223.87C270.87 223.73 269.93 223.07 269.05 222.40C268.18 221.73 267.32 221.18 267.15 221.18C266.97 221.18 266.71 221.03 266.55 220.85C266.40 220.66 265.95 220.29 265.55 220.02C265.15 219.76 263.89 218.88 262.76 218.08C261.62 217.28 260.35 216.39 259.92 216.09C259.50 215.80 259.15 215.49 259.15 215.40C259.15 215.31 258.70 214.95 258.15 214.60C257.59 214.25 256.97 213.76 256.75 213.53C256.54 213.29 255.72 212.72 254.94 212.27C254.16 211.81 253.19 211.13 252.78 210.76C252.36 210.39 251.52 209.79 250.90 209.42C249.76 208.75 248.80 208.08 245.14 205.37C244.05 204.57 242.86 203.75 242.49 203.56C242.12 203.38 241.82 203.13 241.82 203.03C241.82 202.92 241.47 202.65 241.04 202.43C240.20 202.00 237.68 200.20 236.90 199.48C236.63 199.23 236.17 198.90 235.87 198.74C235.56 198.59 234.84 198.09 234.27 197.65C233.69 197.20 233.08 196.84 232.92 196.84C232.61 196.83 232.47 196.75 229.68 194.82C228.64 194.12 227.70 193.54 227.59 193.54C227.47 193.54 225.42 192.56 223.04 191.37C218.73 189.21 217.29 188.59 216.58 188.59C216.38 188.58 215.85 188.40 215.41 188.17C214.29 187.60 212.43 187.62 211.13 188.20C210.59 188.44 209.92 188.75 209.64 188.87C208.93 189.19 207.27 190.83 206.88 191.60C206.70 191.96 206.41 192.30 206.23 192.37C206.06 192.44 205.91 192.67 205.91 192.88C205.91 193.10 205.67 193.63 205.37 194.07C205.06 194.52 204.74 195.22 204.64 195.65C204.55 196.08 204.37 196.82 204.25 197.30C203.94 198.52 203.65 200.34 203.45 202.41C203.35 203.37 203.16 204.58 203.02 205.09C202.85 205.71 202.74 208.22 202.68 212.72C202.64 216.94 202.52 219.64 202.38 219.99C202.24 220.33 202.23 220.70 202.33 220.92C202.43 221.12 202.58 224.12 202.66 227.58C202.74 231.04 202.90 235.54 203.01 237.59C203.12 239.63 203.26 242.92 203.32 244.91C203.39 246.90 203.50 248.80 203.57 249.14C203.63 249.48 203.77 250.85 203.87 252.18C204.06 254.66 204.31 257.67 204.66 261.73C204.77 262.97 204.96 264.60 205.10 265.34C205.23 266.07 205.35 267.47 205.37 268.43L205.40 270.19L198.75 270.24C192.10 270.29 192.10 270.29 191.79 269.68ZM103.72 114.48C103.21 113.92 103.61 113.33 106.16 110.80C107.25 109.72 108.27 108.61 108.43 108.32C108.92 107.40 124.75 92.02 125.20 92.02C125.74 92.02 125.37 92.53 123.50 94.35C122.43 95.40 121.36 96.44 121.13 96.66C118.18 99.58 113.12 104.88 112.75 105.46C112.48 105.87 111.94 106.41 111.53 106.66C111.13 106.91 110.80 107.20 110.80 107.30C110.80 107.39 110.24 108.06 109.56 108.77C108.88 109.49 108.33 110.15 108.33 110.24C108.32 110.33 107.74 111.05 107.03 111.83C106.32 112.62 105.43 113.64 105.05 114.09C104.26 115.03 104.23 115.04 103.72 114.48Z" fill="#FFFFFF" fill-rule="evenodd"/>
    </g>
  </g>

  <circle cx="300.0" cy="300.0" r="250" fill="none" stroke="url(#platH)" stroke-width="2.5"/>
  <circle cx="300.0" cy="300.0" r="243" fill="none" stroke="url(#platH)" stroke-width="0.7" opacity="0.5"/>
  <g clip-path="url(#disk)">
    <rect x="0" y="288" width="600" height="84" fill="url(#plat)"/>
    <rect x="0" y="288" width="600" height="2.5" fill="url(#platH)"/>
    <rect x="0" y="369.5" width="600" height="2.5" fill="url(#platH)"/>
  </g>
  <text x="302.0" y="350" text-anchor="middle" font-family="Georgia, 'Times New Roman', serif" font-weight="700" font-size="62" letter-spacing="8" fill="#1C3C5E">KHALIF</text>
</svg>